# xmcd
#
# Track frame offsets: 
#        150
#        10977
#        25672
#        47181
#        61610
#        78618
#        96298
#        109740
#        125455
#        142802
#        155687
#        173999
#
# Disc length: 2518 seconds
#
# Revision: 0
# Processed by: cddbd v1.5.2PL0 Copyright (c) Steve Scherf et al.
# Submitted via: ExactAudioCopyFreeDBPlugin 1.0
#
DISCID=9609d40c
DTITLE=Weldon Henson - Trouble For Me
DYEAR=2010
DGENRE=Country
TTITLE0=Good Time Tonight
TTITLE1=Got To Make You Mine
TTITLE2=I Tried The Hard Way
TTITLE3=Trouble For Me
TTITLE4=Haulin' Freight
TTITLE5=The Good Times Are Still Yet To Come
TTITLE6=You Get Uptight
TTITLE7=Three Times A Leavin'
TTITLE8=Constant Sorrow
TTITLE9=Where I Belong
TTITLE10=A Heartache For Me
TTITLE11=Runnin' Behind
EXTD=
EXTT0=
EXTT1=
EXTT2=
EXTT3=
EXTT4=
EXTT5=
EXTT6=
EXTT7=
EXTT8=
EXTT9=
EXTT10=
EXTT11=
PLAYORDER=
